<mxfile host="app.diagrams.net" modified="2021-07-07T06:48:57.648Z" agent="5.0 (Windows NT 10.0; Win64; x64) AppleWebKit/537.36 (KHTML, like Gecko) Chrome/91.0.4472.124 Safari/537.36 Edg/91.0.864.64" etag="Xhy-YLLgr6ear1Ms7qi1" version="14.1.9" type="github">
  <diagram id="OJVyOrcrOaGeDffR4Ujj" name="Page-1">
    <mxGraphModel dx="782" dy="436" grid="1" gridSize="10" guides="1" tooltips="1" connect="1" arrows="1" fold="1" page="1" pageScale="1" pageWidth="827" pageHeight="1169" math="0" shadow="0">
      <root>
        <mxCell id="0" />
        <mxCell id="1" parent="0" />
        <mxCell id="gCNV1SUc6bNqHTgW4wkb-19" style="edgeStyle=orthogonalEdgeStyle;rounded=0;orthogonalLoop=1;jettySize=auto;html=1;entryX=0.5;entryY=0;entryDx=0;entryDy=0;" edge="1" parent="1" source="gCNV1SUc6bNqHTgW4wkb-14" target="gCNV1SUc6bNqHTgW4wkb-15">
          <mxGeometry relative="1" as="geometry" />
        </mxCell>
        <mxCell id="gCNV1SUc6bNqHTgW4wkb-14" value="修改课程数据" style="strokeWidth=2;html=1;shape=mxgraph.flowchart.display;whiteSpace=wrap;" vertex="1" parent="1">
          <mxGeometry x="310" y="270" width="100" height="60" as="geometry" />
        </mxCell>
        <mxCell id="gCNV1SUc6bNqHTgW4wkb-18" style="edgeStyle=orthogonalEdgeStyle;rounded=0;orthogonalLoop=1;jettySize=auto;html=1;entryX=0;entryY=0.5;entryDx=0;entryDy=0;entryPerimeter=0;" edge="1" parent="1" source="gCNV1SUc6bNqHTgW4wkb-15" target="gCNV1SUc6bNqHTgW4wkb-16">
          <mxGeometry relative="1" as="geometry" />
        </mxCell>
        <mxCell id="gCNV1SUc6bNqHTgW4wkb-21" style="edgeStyle=orthogonalEdgeStyle;rounded=0;orthogonalLoop=1;jettySize=auto;html=1;entryX=0.5;entryY=0;entryDx=0;entryDy=0;entryPerimeter=0;" edge="1" parent="1" source="gCNV1SUc6bNqHTgW4wkb-15" target="gCNV1SUc6bNqHTgW4wkb-20">
          <mxGeometry relative="1" as="geometry" />
        </mxCell>
        <mxCell id="gCNV1SUc6bNqHTgW4wkb-15" value="课程管理程序" style="rounded=0;whiteSpace=wrap;html=1;" vertex="1" parent="1">
          <mxGeometry x="300" y="380" width="120" height="60" as="geometry" />
        </mxCell>
        <mxCell id="gCNV1SUc6bNqHTgW4wkb-17" style="edgeStyle=orthogonalEdgeStyle;rounded=0;orthogonalLoop=1;jettySize=auto;html=1;entryX=1;entryY=0.5;entryDx=0;entryDy=0;" edge="1" parent="1" source="gCNV1SUc6bNqHTgW4wkb-16" target="gCNV1SUc6bNqHTgW4wkb-15">
          <mxGeometry relative="1" as="geometry" />
        </mxCell>
        <mxCell id="gCNV1SUc6bNqHTgW4wkb-16" value="课程数据" style="strokeWidth=2;html=1;shape=mxgraph.flowchart.database;whiteSpace=wrap;" vertex="1" parent="1">
          <mxGeometry x="480" y="380" width="60" height="60" as="geometry" />
        </mxCell>
        <mxCell id="gCNV1SUc6bNqHTgW4wkb-23" style="edgeStyle=orthogonalEdgeStyle;rounded=0;orthogonalLoop=1;jettySize=auto;html=1;entryX=0.5;entryY=0;entryDx=0;entryDy=0;" edge="1" parent="1" source="gCNV1SUc6bNqHTgW4wkb-20" target="gCNV1SUc6bNqHTgW4wkb-22">
          <mxGeometry relative="1" as="geometry" />
        </mxCell>
        <mxCell id="gCNV1SUc6bNqHTgW4wkb-20" value="课程信息" style="strokeWidth=2;html=1;shape=mxgraph.flowchart.sequential_data;whiteSpace=wrap;" vertex="1" parent="1">
          <mxGeometry x="325" y="480" width="70" height="70" as="geometry" />
        </mxCell>
        <mxCell id="gCNV1SUc6bNqHTgW4wkb-25" style="edgeStyle=orthogonalEdgeStyle;rounded=0;orthogonalLoop=1;jettySize=auto;html=1;entryX=0.5;entryY=0;entryDx=0;entryDy=0;" edge="1" parent="1" source="gCNV1SUc6bNqHTgW4wkb-22" target="gCNV1SUc6bNqHTgW4wkb-24">
          <mxGeometry relative="1" as="geometry" />
        </mxCell>
        <mxCell id="gCNV1SUc6bNqHTgW4wkb-22" value="课程页面生成程序" style="rounded=0;whiteSpace=wrap;html=1;" vertex="1" parent="1">
          <mxGeometry x="300" y="590" width="120" height="60" as="geometry" />
        </mxCell>
        <mxCell id="gCNV1SUc6bNqHTgW4wkb-24" value="课程管理页面" style="shape=document;whiteSpace=wrap;html=1;boundedLbl=1;" vertex="1" parent="1">
          <mxGeometry x="300" y="690" width="120" height="80" as="geometry" />
        </mxCell>
      </root>
    </mxGraphModel>
  </diagram>
</mxfile>
